<?xml version="1.0" standalone="no"?>
<!DOCTYPE svg PUBLIC "-//W3C//DTD SVG 20010904//EN"
 "http://www.w3.org/TR/2001/REC-SVG-20010904/DTD/svg10.dtd">
<svg version="1.0" xmlns="http://www.w3.org/2000/svg"
 width="119.000000pt" height="119.000000pt" viewBox="0 0 119.000000 119.000000"
 preserveAspectRatio="xMidYMid meet">
<metadata>
Created by potrace 1.14, written by Peter Selinger 2001-2017
</metadata>
<g transform="translate(0.000000,119.000000) scale(0.100000,-0.100000)"
fill="#000000" stroke="none">
<path d="M730 1175 c-60 -18 -127 -56 -166 -96 l-37 -38 -31 24 c-17 12 -55
31 -83 41 -47 16 -54 17 -67 4 -19 -19 -5 -89 25 -132 18 -24 27 -28 60 -26
21 1 39 5 39 8 0 3 -14 22 -31 43 -41 49 -21 48 23 -2 31 -35 39 -39 82 -39
45 0 50 3 106 61 32 34 61 59 65 56 3 -4 -15 -31 -39 -61 l-45 -56 51 -6 c44
-6 54 -4 73 14 45 42 83 164 63 202 -9 19 -33 20 -88 3z"/>
<path d="M472 919 c-66 -13 -184 -73 -238 -123 -142 -127 -170 -337 -65 -489
30 -44 93 -106 126 -125 18 -9 18 -12 -2 -78 -33 -111 -21 -116 105 -48 82 45
88 47 163 45 159 -4 285 40 387 133 232 216 137 552 -190 671 -50 18 -222 27
-286 14z m263 -153 c65 -17 87 -29 137 -74 59 -53 82 -104 82 -182 -1 -107
-57 -189 -164 -239 -74 -35 -219 -37 -292 -4 -202 93 -231 330 -55 452 83 56
192 74 292 47z"/>
<path d="M547 537 c-18 -14 -6 -57 16 -57 17 0 37 20 37 37 0 20 -35 34 -53
20z"/>
<path d="M753 537 c-14 -18 -10 -39 10 -51 15 -9 21 -7 33 9 8 10 13 23 11 29
-5 16 -45 26 -54 13z"/>
<path d="M653 493 c-20 -7 -16 -50 5 -55 27 -7 42 2 42 27 0 23 -23 36 -47 28z"/>
</g>
</svg>
