<svg width="128" height="34" viewBox="0 0 128 34" fill="none" xmlns="http://www.w3.org/2000/svg">
<path d="M33.4692 10.4554C33.9878 11.0462 34.6371 11.5088 35.3659 11.8066C36.0946 12.1044 36.8829 12.2292 37.6684 12.1713H61.4638V16.412H53.8563V19.2578H56.6557V28.2067H42.2945V28.9041C42.2945 29.6435 42.5325 29.9574 43.3513 29.9574H53.2894C55.2 29.9574 55.9839 29.5668 56.7887 28.946L60.1131 31.0385C58.2374 32.9496 56.0888 33.7657 53.0374 33.8284H39.88C39.4797 33.8541 39.0785 33.7958 38.7023 33.6573C38.3261 33.5189 37.9831 33.3034 37.6956 33.0247C37.4081 32.7461 37.1824 32.4105 37.033 32.0395C36.8837 31.6685 36.814 31.2705 36.8285 30.8711V24.6285H51.4767V23.1498H36.7796V19.2578H39.579V16.412H37.3115C34.225 16.412 31.4956 14.7381 29.5779 12.3666L33.4692 10.4554ZM56.8657 5.78923C56.8657 7.65154 56.7887 10.0718 55.9279 11.7388L51.4347 9.56265C51.6798 8.29214 51.7854 6.99881 51.7497 5.70551V4.31053H36.3526V0.0349121H56.8587L56.8657 5.78923ZM44.5201 19.2578H48.8592V16.412H44.5201V19.2578Z" fill="#24732F"/>
<path d="M68.0775 20.8132C67.2885 20.7964 66.5353 20.4817 65.9702 19.9327C65.4051 19.3837 65.0701 18.6414 65.0331 17.8558V1.38799H81.4379V20.8132H68.0775ZM76.3219 5.62876H70.1491V15.3937C70.1453 15.5431 70.172 15.6917 70.2276 15.8306C70.2832 15.9694 70.3666 16.0955 70.4726 16.2012C70.5787 16.3069 70.7052 16.39 70.8445 16.4454C70.9838 16.5008 71.1329 16.5274 71.2829 16.5236H76.3219V5.62876ZM90.6552 8.62797H95.6522V12.8687H90.6552V21.2038C90.6552 22.4104 90.6972 25.5631 89.7173 27.4812L85.2242 25.305C85.4313 24.0296 85.5366 22.7399 85.5391 21.4479V0.0278931H90.6552V8.62797Z" fill="#24732F"/>
<path d="M108.509 4.88943H98.9416V0.704475H113.702V4.44303C113.706 5.14231 113.666 5.84117 113.583 6.53551H116.277V0H121.274V14.5846C121.355 16.1432 121.197 17.7049 120.805 19.216L116.039 17.4652C116.223 16.547 116.303 15.6112 116.277 14.6753V10.9716H112.176C109.286 16.5515 102.756 18.644 98.3817 19.188V14.6753C101.356 14.2428 104.205 13.1966 106.115 11.2436H98.9416V7.19814H108.271C108.436 6.43974 108.516 5.66542 108.509 4.88943ZM112.337 19.9134H117.677C117.677 25.7166 122.128 28.2834 126.467 29.4133L124.627 33.7377C121.351 32.9566 116.781 30.7804 115.018 28.095C113.38 30.7804 108.719 33.0333 105.45 33.7377L103.617 29.3784C107.494 28.3252 112.337 25.7445 112.337 19.9134ZM123.003 0.0279057H128V13.7267C128 14.9333 128.042 18.086 127.062 20.0041L122.688 17.821C122.895 16.5479 123 15.2605 123.003 13.9708V0.0279057Z" fill="#24732F"/>
<path d="M22.25 2H26.75V6.65625V9.48397C26.8684 13.7534 26.9391 18.5704 26.25 20.5L21.75 18.5C21.9167 18.5 22.25 17.8 22.25 15V11.5H18V8H22.25V2Z" fill="#24732F"/>
<path d="M26.75 2H22.25C22.25 3.44905 22.25 5.70776 22.25 8M26.75 2C26.25 4 27.5 17 26.25 20.5M26.75 2V6.65625V15L26.25 20.5M26.25 20.5L21.75 18.5C21.9167 18.5 22.25 17.8 22.25 15C22.25 13.4813 22.25 10.7171 22.25 8M22.25 8H18V11.5H22.75L22.25 8Z" stroke="#24732F" stroke-width="0.5"/>
<path d="M7.5 0V3.5H1V7H7.5C7.5 11.5 3 15.5 0 17C0.166667 17.3333 0.8 18.5 2 20.5C5.6 19.7 8.83333 15.8333 10 14C11.6 16 16 18.5 18 19.5C18 19.5 19 18 20 16C12.8 13.2 12.5 9 12.5 7H19V3.5H12V0H7.5Z" fill="#24732F"/>
<path d="M24.95 27.5C24.95 28.3384 24.7791 28.9449 24.5195 29.4028C24.2621 29.8567 23.852 30.2802 23.1918 30.6563C21.7977 31.4506 19.4339 31.95 15.7949 31.95C12.0247 31.95 9.50568 31.6772 7.95396 30.9543C7.2448 30.6239 6.81886 30.2335 6.5472 29.7809C6.26675 29.3137 6.05001 28.6112 6.05 27.5C6.04999 26.4832 6.29767 25.8192 6.63081 25.3486C6.9745 24.8632 7.51938 24.4295 8.35245 24.0682C10.0964 23.3119 12.6734 23.0499 15.7948 23.05C19.2758 23.0501 21.6556 23.545 23.0991 24.3519C23.7892 24.7377 24.2264 25.1728 24.5002 25.6334C24.7728 26.0919 24.95 26.6878 24.95 27.5Z" stroke="#24732F" stroke-width="4.1"/>
<path d="M13 24.5C9.50001 24.5 7.94374 25.7515 8.00104 28.0237C8.05976 30.3524 11.5 31 14 31" stroke="#24732F" stroke-width="1.4"/>
<path d="M17.5 24.5C20.5 24.5 23.065 25.3478 22.9982 27.7947C22.9297 30.3026 18.9164 31 16 31" stroke="#24732F" stroke-width="1.3"/>
</svg>
